ffmpeg started on 2016-12-07 at 19:55:18
Report written to "Output/x264/results/ffmpeg/crowd_run_2160p50slower1500k.log"
Command line:
Tools/ffmpeg/ffmpeg -benchmark -y -i Input/y4m/crowd_run_2160p50.y4m -c:v libx264 -preset slower -b:v 1500k -an Output/x264/encoded/crowd_run_2160p50slower1500k.mkv
ffmpeg version N-82227-gdb23fde Copyright (c) 2000-2016 the FFmpeg developers
  built with gcc 5.4.0 (Ubuntu 5.4.0-6ubuntu1~16.04.2) 20160609
  configuration: --prefix=/home/jaroslav/ffmpeg_build --pkg-config-flags=--static --extra-cflags=-I/home/jaroslav/ffmpeg_build/include --extra-ldflags=-L/home/jaroslav/ffmpeg_build/lib --bindir=/home/jaroslav/bin --enable-gpl --enable-libass --enable-libfdk-aac --enable-libfreetype --enable-libmp3lame --enable-libopus --enable-libtheora --enable-libvorbis --enable-libvpx --enable-libx264 --enable-libx265 --enable-nvenc --enable-libmfx --enable-libxvid --enable-libgsm --enable-libopencore-amrnb --enable-version3 --enable-nonfree
  libavutil      55. 35.100 / 55. 35.100
  libavcodec     57. 66.101 / 57. 66.101
  libavformat    57. 57.100 / 57. 57.100
  libavdevice    57.  2.100 / 57.  2.100
  libavfilter     6. 66.100 /  6. 66.100
  libswscale      4.  3.100 /  4.  3.100
  libswresample   2.  4.100 /  2.  4.100
  libpostproc    54.  2.100 / 54.  2.100
Input #0, yuv4mpegpipe, from 'Input/y4m/crowd_run_2160p50.y4m':
  Duration: 00:00:10.00, start: 0.000000, bitrate: 4976642 kb/s
    Stream #0:0: Video: rawvideo (I420 / 0x30323449), yuv420p(progressive), 3840x2160, SAR 1:1 DAR 16:9, 50 fps, 50 tbr, 50 tbn, 50 tbc
[libx264 @ 0x27bd1c0] using SAR=1/1
[libx264 @ 0x27bd1c0] DPB size (8 frames, 259200 mbs) > level limit (5 frames, 184320 mbs)
[libx264 @ 0x27bd1c0] using cpu capabilities: MMX2 SSE2Fast SSSE3 SSE4.2 AVX FMA3 AVX2 LZCNT BMI2
[libx264 @ 0x27bd1c0] profile High, level 5.2
[libx264 @ 0x27bd1c0] 264 - core 148 - H.264/MPEG-4 AVC codec - Copyleft 2003-2016 - http://www.videolan.org/x264.html - options: cabac=1 ref=8 deblock=1:0:0 analyse=0x3:0x133 me=umh subme=9 psy=1 psy_rd=1.00:0.00 mixed_ref=1 me_range=16 chroma_me=1 trellis=2 8x8dct=1 cqm=0 deadzone=21,11 fast_pskip=1 chroma_qp_offset=-2 threads=6 lookahead_threads=1 sliced_threads=0 nr=0 decimate=1 interlaced=0 bluray_compat=0 constrained_intra=0 bframes=3 b_pyramid=2 b_adapt=2 b_bias=0 direct=3 weightb=1 open_gop=0 weightp=2 keyint=250 keyint_min=25 scenecut=40 intra_refresh=0 rc_lookahead=60 rc=abr mbtree=1 bitrate=1500 ratetol=1.0 qcomp=0.60 qpmin=0 qpmax=69 qpstep=4 ip_ratio=1.40 aq=1:1.00
Output #0, matroska, to 'Output/x264/encoded/crowd_run_2160p50slower1500k.mkv':
  Metadata:
    encoder         : Lavf57.57.100
    Stream #0:0: Video: h264 (libx264) (H264 / 0x34363248), yuv420p, 3840x2160 [SAR 1:1 DAR 16:9], q=-1--1, 1500 kb/s, 50 fps, 1k tbn, 50 tbc
    Metadata:
      encoder         : Lavc57.66.101 libx264
    Side data:
      cpb: bitrate max/min/avg: 0/0/1500000 buffer size: 0 vbv_delay: -1
Stream mapping:
  Stream #0:0 -> #0:0 (rawvideo (native) -> h264 (libx264))
Press [q] to stop, [?] for help
frame=   12 fps=0.0 q=0.0 size=       0kB time=00:00:00.00 bitrate=N/A speed=   0x    frame=   27 fps= 26 q=0.0 size=       0kB time=00:00:00.00 bitrate=N/A speed=   0x    frame=   40 fps= 26 q=0.0 size=       0kB time=00:00:00.00 bitrate=N/A speed=   0x    frame=   51 fps= 24 q=0.0 size=       0kB time=00:00:00.00 bitrate=N/A speed=   0x    frame=   62 fps= 24 q=0.0 size=       0kB time=00:00:00.00 bitrate=N/A speed=   0x    frame=   67 fps= 11 q=0.0 size=       0kB time=00:00:00.00 bitrate=N/A speed=   0x    frame=   74 fps= 11 q=54.0 size=       1kB time=00:00:00.02 bitrate= 280.4kbits/s speed=0.00312x    frame=   77 fps= 11 q=63.0 size=       1kB time=00:00:00.08 bitrate=  72.7kbits/s speed=0.0111x    frame=   79 fps= 10 q=65.0 size=       1kB time=00:00:00.12 bitrate=  48.7kbits/s speed=0.0154x    frame=   82 fps=9.7 q=67.0 size=       1kB time=00:00:00.18 bitrate=  32.5kbits/s speed=0.0213x    frame=   86 fps=9.6 q=67.0 size=       1kB time=00:00:00.26 bitrate=  22.6kbits/s speed=0.029x    frame=   90 fps=9.2 q=68.0 size=       1kB time=00:00:00.34 bitrate=  17.3kbits/s speed=0.0348x    frame=   94 fps=9.1 q=68.0 size=       1kB time=00:00:00.42 bitrate=  14.0kbits/s speed=0.0408x    frame=   98 fps=9.0 q=68.0 size=       1kB time=00:00:00.50 bitrate=  11.8kbits/s speed=0.0459x    frame=  103 fps=9.0 q=68.0 size=       1kB time=00:00:00.60 bitrate=   9.8kbits/s speed=0.0527x    frame=  108 fps=8.9 q=68.0 size=       1kB time=00:00:00.70 bitrate=   8.4kbits/s speed=0.0577x    frame=  112 fps=8.8 q=68.0 size=       1kB time=00:00:00.78 bitrate=   7.5kbits/s speed=0.0617x    frame=  116 fps=8.8 q=68.0 size=       1kB time=00:00:00.86 bitrate=   6.8kbits/s speed=0.0654x    frame=  120 fps=8.6 q=68.0 size=       1kB time=00:00:00.94 bitrate=   6.3kbits/s speed=0.0673x    frame=  125 fps=8.6 q=68.0 size=       1kB time=00:00:01.04 bitrate=   5.7kbits/s speed=0.0718x    frame=  129 fps=8.6 q=68.0 size=       1kB time=00:00:01.12 bitrate=   5.3kbits/s speed=0.0745x    frame=  134 fps=8.4 q=68.0 size=       1kB time=00:00:01.22 bitrate=   4.8kbits/s speed=0.0768x    frame=  138 fps=8.4 q=68.0 size=       1kB time=00:00:01.30 bitrate=   4.5kbits/s speed=0.0792x    frame=  142 fps=8.3 q=68.0 size=       1kB time=00:00:01.38 bitrate=   4.3kbits/s speed=0.0806x    frame=  147 fps=8.3 q=67.0 size=       1kB time=00:00:01.48 bitrate=   4.0kbits/s speed=0.0839x    frame=  150 fps=8.3 q=67.0 size=       1kB time=00:00:01.54 bitrate=   3.8kbits/s speed=0.0848x    frame=  154 fps=8.2 q=67.0 size=       1kB time=00:00:01.62 bitrate=   3.6kbits/s speed=0.0864x    frame=  159 fps=8.2 q=67.0 size=       1kB time=00:00:01.72 bitrate=   3.4kbits/s speed=0.0892x    frame=  162 fps=8.1 q=67.0 size=       1kB time=00:00:01.78 bitrate=   3.3kbits/s speed=0.0894x    frame=  168 fps=8.1 q=66.0 size=       1kB time=00:00:01.90 bitrate=   3.1kbits/s speed=0.0915x    frame=  173 fps=8.1 q=66.0 size=       1kB time=00:00:02.00 bitrate=   2.9kbits/s speed=0.0933x    frame=  177 fps=8.0 q=66.0 size=       1kB time=00:00:02.08 bitrate=   2.8kbits/s speed=0.0936x    frame=  182 fps=8.0 q=66.0 size=       1kB time=00:00:02.18 bitrate=   2.7kbits/s speed=0.0957x    frame=  185 fps=7.9 q=66.0 size=       1kB time=00:00:02.24 bitrate=   2.6kbits/s speed=0.096x    frame=  188 fps=7.9 q=66.0 size=       1kB time=00:00:02.30 bitrate=   2.6kbits/s speed=0.0965x    frame=  191 fps=7.8 q=66.0 size=       1kB time=00:00:02.36 bitrate=   2.5kbits/s speed=0.0965x    frame=  195 fps=7.8 q=66.0 size=       1kB time=00:00:02.44 bitrate=   2.4kbits/s speed=0.0976x    frame=  199 fps=7.8 q=66.0 size=       1kB time=00:00:02.52 bitrate=   2.3kbits/s speed=0.0983x    frame=  203 fps=7.7 q=65.0 size=       1kB time=00:00:02.60 bitrate=   2.3kbits/s speed=0.0991x    frame=  206 fps=7.7 q=65.0 size=       1kB time=00:00:02.66 bitrate=   2.2kbits/s speed=0.0991x    frame=  210 fps=7.7 q=65.0 size=       1kB time=00:00:02.74 bitrate=   2.1kbits/s speed= 0.1x    frame=  214 fps=7.6 q=65.0 size=       1kB time=00:00:02.82 bitrate=   2.1kbits/s speed= 0.1x    frame=  218 fps=7.6 q=65.0 size=       1kB time=00:00:02.90 bitrate=   2.0kbits/s speed=0.101x    frame=  221 fps=7.5 q=65.0 size=       1kB time=00:00:02.96 bitrate=   2.0kbits/s speed=0.101x    frame=  225 fps=7.5 q=65.0 size=       1kB time=00:00:03.04 bitrate=   1.9kbits/s speed=0.102x    frame=  228 fps=7.4 q=65.0 size=       1kB time=00:00:03.10 bitrate=   1.9kbits/s speed=0.101x    frame=  233 fps=7.5 q=65.0 size=       1kB time=00:00:03.20 bitrate=   1.8kbits/s speed=0.103x    frame=  236 fps=7.4 q=65.0 size=       1kB time=00:00:03.26 bitrate=   1.8kbits/s speed=0.102x    frame=  241 fps=7.4 q=65.0 size=       1kB time=00:00:03.36 bitrate=   1.8kbits/s speed=0.103x    frame=  244 fps=7.3 q=64.0 size=       1kB time=00:00:03.42 bitrate=   1.7kbits/s speed=0.102x    frame=  250 fps=7.3 q=64.0 size=       1kB time=00:00:03.54 bitrate=   1.7kbits/s speed=0.103x    frame=  252 fps=7.2 q=64.0 size=       1kB time=00:00:03.58 bitrate=   1.6kbits/s speed=0.103x    frame=  255 fps=7.2 q=64.0 size=       1kB time=00:00:03.64 bitrate=   1.6kbits/s speed=0.103x    frame=  259 fps=7.2 q=64.0 size=       1kB time=00:00:03.72 bitrate=   1.6kbits/s speed=0.103x    frame=  263 fps=7.1 q=64.0 size=       1kB time=00:00:03.80 bitrate=   1.5kbits/s speed=0.103x    frame=  266 fps=7.1 q=64.0 size=       1kB time=00:00:03.86 bitrate=   1.5kbits/s speed=0.103x    frame=  270 fps=7.1 q=64.0 size=       1kB time=00:00:03.94 bitrate=   1.5kbits/s speed=0.103x    frame=  274 fps=7.0 q=64.0 size=       1kB time=00:00:04.02 bitrate=   1.5kbits/s speed=0.103x    frame=  277 fps=7.0 q=64.0 size=       1kB time=00:00:04.08 bitrate=   1.4kbits/s speed=0.103x    frame=  281 fps=7.0 q=64.0 size=       1kB time=00:00:04.16 bitrate=   1.4kbits/s speed=0.103x    frame=  285 fps=6.9 q=64.0 size=       1kB time=00:00:04.24 bitrate=   1.4kbits/s speed=0.103x    frame=  289 fps=6.9 q=64.0 size=       1kB time=00:00:04.32 bitrate=   1.4kbits/s speed=0.103x    frame=  293 fps=6.9 q=64.0 size=       1kB time=00:00:04.40 bitrate=   1.3kbits/s speed=0.103x    frame=  297 fps=6.9 q=64.0 size=       1kB time=00:00:04.48 bitrate=   1.3kbits/s speed=0.104x    frame=  300 fps=6.8 q=64.0 size=       1kB time=00:00:04.54 bitrate=   1.3kbits/s speed=0.103x    frame=  305 fps=6.8 q=64.0 size=       1kB time=00:00:04.64 bitrate=   1.3kbits/s speed=0.104x    frame=  308 fps=6.8 q=64.0 size=       1kB time=00:00:04.70 bitrate=   1.3kbits/s speed=0.103x    frame=  312 fps=6.7 q=64.0 size=       1kB time=00:00:04.78 bitrate=   1.2kbits/s speed=0.103x    frame=  316 fps=6.7 q=61.0 size=       1kB time=00:00:04.86 bitrate=   1.2kbits/s speed=0.103x    frame=  320 fps=6.7 q=64.0 size=       1kB time=00:00:04.94 bitrate=   1.2kbits/s speed=0.104x    frame=  327 fps=6.8 q=64.0 size=     897kB time=00:00:05.08 bitrate=1446.0kbits/s speed=0.105x    frame=  330 fps=6.8 q=64.0 size=     897kB time=00:00:05.14 bitrate=1429.1kbits/s speed=0.105x    frame=  333 fps=6.7 q=64.0 size=     897kB time=00:00:05.20 bitrate=1412.6kbits/s speed=0.105x    frame=  337 fps=6.7 q=64.0 size=     897kB time=00:00:05.28 bitrate=1391.2kbits/s speed=0.105x    frame=  340 fps=6.7 q=64.0 size=     897kB time=00:00:05.34 bitrate=1375.6kbits/s speed=0.105x    frame=  344 fps=6.7 q=64.0 size=     897kB time=00:00:05.42 bitrate=1355.3kbits/s speed=0.105x    frame=  348 fps=6.6 q=64.0 size=     897kB time=00:00:05.50 bitrate=1335.6kbits/s speed=0.104x    frame=  353 fps=6.6 q=64.0 size=     897kB time=00:00:05.60 bitrate=1311.7kbits/s speed=0.105x    frame=  356 fps=6.6 q=64.0 size=     897kB time=00:00:05.66 bitrate=1297.8kbits/s speed=0.104x    frame=  360 fps=6.5 q=64.0 size=     897kB time=00:00:05.74 bitrate=1279.7kbits/s speed=0.104x    frame=  364 fps=6.5 q=64.0 size=     897kB time=00:00:05.82 bitrate=1262.1kbits/s speed=0.104x    frame=  369 fps=6.5 q=64.0 size=     897kB time=00:00:05.92 bitrate=1240.8kbits/s speed=0.104x    frame=  372 fps=6.5 q=64.0 size=     897kB time=00:00:05.98 bitrate=1228.4kbits/s speed=0.104x    frame=  377 fps=6.5 q=64.0 size=     897kB time=00:00:06.08 bitrate=1208.2kbits/s speed=0.104x    frame=  379 fps=6.4 q=64.0 size=     897kB time=00:00:06.12 bitrate=1200.3kbits/s speed=0.104x    frame=  384 fps=6.4 q=64.0 size=     897kB time=00:00:06.22 bitrate=1181.0kbits/s speed=0.104x    frame=  385 fps=6.4 q=64.0 size=     897kB time=00:00:06.24 bitrate=1177.2kbits/s speed=0.103x    frame=  390 fps=6.4 q=64.0 size=     897kB time=00:00:06.34 bitrate=1158.6kbits/s speed=0.103x    frame=  393 fps=6.3 q=64.0 size=     897kB time=00:00:06.40 bitrate=1147.8kbits/s speed=0.103x    frame=  396 fps=6.3 q=64.0 size=     897kB time=00:00:06.46 bitrate=1137.1kbits/s speed=0.103x    frame=  399 fps=6.3 q=64.0 size=     897kB time=00:00:06.52 bitrate=1126.7kbits/s speed=0.103x    frame=  402 fps=6.3 q=64.0 size=     897kB time=00:00:06.58 bitrate=1116.4kbits/s speed=0.103x    frame=  406 fps=6.3 q=64.0 size=     897kB time=00:00:06.66 bitrate=1103.0kbits/s speed=0.103x    frame=  410 fps=6.3 q=64.0 size=     897kB time=00:00:06.74 bitrate=1089.9kbits/s speed=0.103x    frame=  414 fps=6.2 q=64.0 size=     897kB time=00:00:06.82 bitrate=1077.1kbits/s speed=0.103x    frame=  418 fps=6.2 q=64.0 size=     897kB time=00:00:06.90 bitrate=1064.6kbits/s speed=0.103x    frame=  421 fps=6.2 q=64.0 size=     897kB time=00:00:06.96 bitrate=1055.4kbits/s speed=0.103x    frame=  424 fps=6.2 q=64.0 size=     897kB time=00:00:07.02 bitrate=1046.4kbits/s speed=0.103x    frame=  427 fps=6.2 q=64.0 size=     897kB time=00:00:07.08 bitrate=1037.6kbits/s speed=0.103x    frame=  431 fps=6.2 q=64.0 size=     897kB time=00:00:07.16 bitrate=1026.0kbits/s speed=0.102x    frame=  435 fps=6.2 q=64.0 size=     897kB time=00:00:07.24 bitrate=1014.6kbits/s speed=0.103x    frame=  439 fps=6.1 q=64.0 size=     897kB time=00:00:07.32 bitrate=1003.5kbits/s speed=0.102x    frame=  442 fps=6.1 q=64.0 size=     897kB time=00:00:07.38 bitrate= 995.4kbits/s speed=0.102x    frame=  444 fps=6.1 q=64.0 size=     897kB time=00:00:07.42 bitrate= 990.0kbits/s speed=0.102x    frame=  449 fps=6.1 q=64.0 size=     897kB time=00:00:07.52 bitrate= 976.9kbits/s speed=0.102x    frame=  451 fps=6.1 q=64.0 size=     897kB time=00:00:07.56 bitrate= 971.7kbits/s speed=0.102x    frame=  456 fps=6.1 q=64.0 size=     897kB time=00:00:07.66 bitrate= 959.0kbits/s speed=0.102x    frame=  458 fps=6.0 q=64.0 size=     897kB time=00:00:07.70 bitrate= 954.0kbits/s speed=0.102x    frame=  461 fps=6.0 q=64.0 size=     897kB time=00:00:07.76 bitrate= 946.6kbits/s speed=0.102x    frame=  465 fps=6.0 q=64.0 size=     897kB time=00:00:07.84 bitrate= 937.0kbits/s speed=0.102x    frame=  466 fps=6.0 q=64.0 size=     897kB time=00:00:07.86 bitrate= 934.6kbits/s speed=0.101x    frame=  470 fps=6.0 q=64.0 size=     897kB time=00:00:07.94 bitrate= 925.2kbits/s speed=0.101x    frame=  474 fps=6.0 q=64.0 size=     897kB time=00:00:08.02 bitrate= 916.0kbits/s speed=0.101x    frame=  478 fps=6.0 q=64.0 size=     897kB time=00:00:08.10 bitrate= 906.9kbits/s speed=0.101x    frame=  482 fps=5.9 q=64.0 size=     897kB time=00:00:08.18 bitrate= 898.0kbits/s speed=0.101x    frame=  485 fps=5.9 q=64.0 size=     897kB time=00:00:08.24 bitrate= 891.5kbits/s speed=0.101x    frame=  489 fps=5.9 q=64.0 size=     897kB time=00:00:08.32 bitrate= 882.9kbits/s speed=0.101x    frame=  492 fps=5.9 q=64.0 size=     897kB time=00:00:08.38 bitrate= 876.6kbits/s speed= 0.1x    frame=  496 fps=5.9 q=64.0 size=     897kB time=00:00:08.46 bitrate= 868.3kbits/s speed= 0.1x    frame=  500 fps=5.9 q=64.0 size=     897kB time=00:00:08.54 bitrate= 860.2kbits/s speed= 0.1x    frame=  500 fps=5.1 q=-1.0 Lsize=    1832kB time=00:00:09.94 bitrate=1510.1kbits/s speed=0.101x    
video:1828kB audio:0kB subtitle:0kB other streams:0kB global headers:0kB muxing overhead: 0.231020%
bench: utime=359.464s
bench: maxrss=2522872kB
[libx264 @ 0x27bd1c0] frame I:2     Avg QP:48.71  size: 54094
[libx264 @ 0x27bd1c0] frame P:134   Avg QP:50.98  size: 11208
[libx264 @ 0x27bd1c0] frame B:364   Avg QP:50.99  size:   718
[libx264 @ 0x27bd1c0] consecutive B-frames:  0.4%  2.8% 14.4% 82.4%
[libx264 @ 0x27bd1c0] mb I  I16..4: 56.9% 42.6%  0.4%
[libx264 @ 0x27bd1c0] mb P  I16..4: 24.0%  3.6%  0.0%  P16..4:  9.6%  0.0%  0.1%  0.0%  0.0%    skip:62.5%
[libx264 @ 0x27bd1c0] mb B  I16..4:  0.0%  0.0%  0.0%  B16..8:  2.1%  0.0%  0.0%  direct: 0.0%  skip:97.9%  L0:12.9% L1:87.0% BI: 0.0%
[libx264 @ 0x27bd1c0] final ratefactor: 56.36
[libx264 @ 0x27bd1c0] 8x8 transform intra:14.7% inter:97.0%
[libx264 @ 0x27bd1c0] direct mvs  spatial:99.2% temporal:0.8%
[libx264 @ 0x27bd1c0] coded y,uvDC,uvAC intra: 0.9% 8.1% 0.3% inter: 0.0% 0.2% 0.0%
[libx264 @ 0x27bd1c0] i16 v,h,dc,p: 87% 10%  1%  1%
[libx264 @ 0x27bd1c0] i8 v,h,dc,ddl,ddr,vr,hd,vl,hu:  2%  1% 88%  2%  2%  1%  1%  1%  1%
[libx264 @ 0x27bd1c0] i4 v,h,dc,ddl,ddr,vr,hd,vl,hu:  6%  4%  8% 18% 15% 13% 12%  9% 16%
[libx264 @ 0x27bd1c0] i8c dc,h,v,p: 97%  2%  1%  0%
[libx264 @ 0x27bd1c0] Weighted P-Frames: Y:0.7% UV:0.0%
[libx264 @ 0x27bd1c0] ref P L0: 47.6%  0.9% 15.8%  8.9%  6.0%  8.4%  7.5%  4.8%  0.0%
[libx264 @ 0x27bd1c0] ref B L0: 82.1%  6.6%  5.8%  1.5%  2.0%  0.9%  1.1%
[libx264 @ 0x27bd1c0] ref B L1: 95.7%  4.3%
[libx264 @ 0x27bd1c0] kb/s:1497.15
